<svg width="92" height="26" viewBox="0 0 92 26" fill="none" xmlns="http://www.w3.org/2000/svg">
<path d="M6.01224 25.2H1.26024C0.864242 25.2 0.540242 25.092 0.324242 24.876C0.108242 24.66 0.000242323 24.336 0.000242323 23.94V1.25995C0.000242323 0.899951 0.108242 0.575951 0.324242 0.359949C0.540242 0.14395 0.864242 -5.05447e-05 1.26024 -5.05447e-05H6.22824C6.58824 -5.05447e-05 6.91224 0.14395 7.12824 0.359949C7.34424 0.575951 7.48824 0.899951 7.48824 1.25995V8.13595C8.64024 6.91195 10.1522 6.29995 11.9522 6.29995C14.2562 6.29995 16.1642 7.19995 17.6762 8.99995C19.1882 10.8 19.9442 13.14 19.9442 16.02C19.9442 18.828 19.2242 21.132 17.7842 22.968C16.3442 24.84 14.4362 25.74 12.0602 25.74C9.97224 25.74 8.31624 25.092 7.05624 23.724V24.156C7.05624 24.876 6.69624 25.2 6.01224 25.2ZM6.98424 16.02C6.98424 17.136 7.20024 18.036 7.70424 18.756C8.20824 19.476 8.82024 19.8 9.61224 19.8C10.3682 19.8 10.9802 19.476 11.4842 18.756C11.9882 18.036 12.2402 17.136 12.2402 16.02C12.2402 14.904 11.9882 14.004 11.4842 13.284C10.9802 12.6 10.3682 12.24 9.61224 12.24C8.82024 12.24 8.20824 12.6 7.70424 13.32C7.20024 14.04 6.98424 14.94 6.98424 16.02ZM27.2362 25.2H22.2682C21.8722 25.2 21.5482 25.092 21.3322 24.876C21.1162 24.66 21.0082 24.336 21.0082 23.94V1.25995C21.0082 0.899951 21.1162 0.575951 21.3322 0.359949C21.5482 0.14395 21.8722 -5.05447e-05 22.2682 -5.05447e-05H27.2362C27.5962 -5.05447e-05 27.9202 0.14395 28.1362 0.359949C28.3522 0.575951 28.4962 0.899951 28.4962 1.25995V23.94C28.4962 24.336 28.3522 24.66 28.1362 24.876C27.9202 25.092 27.5962 25.2 27.2362 25.2ZM29.5858 16.02C29.5858 13.14 30.5218 10.8 32.4298 8.99995C34.3018 7.19995 36.7138 6.29995 39.6658 6.29995C42.5818 6.29995 44.9938 7.19995 46.9018 8.99995C48.7738 10.8 49.7458 13.14 49.7458 16.02C49.7458 18.9 48.7738 21.24 46.9018 23.04C44.9938 24.84 42.5818 25.74 39.6658 25.74C36.7138 25.74 34.2658 24.84 32.3938 23.04C30.5218 21.24 29.5858 18.9 29.5858 16.02ZM37.2898 16.02C37.2898 17.208 37.5058 18.144 37.9378 18.792C38.3698 19.476 38.9458 19.8 39.6658 19.8C40.3858 19.8 40.9618 19.476 41.3938 18.792C41.8258 18.144 42.0418 17.208 42.0418 16.02C42.0418 14.868 41.8258 13.932 41.3938 13.248C40.9618 12.6 40.3858 12.24 39.6658 12.24C38.9458 12.24 38.3698 12.6 37.9378 13.248C37.5058 13.932 37.2898 14.868 37.2898 16.02ZM50.8249 23.94V1.25995C50.8249 0.899951 50.9329 0.575951 51.1489 0.359949C51.3649 0.14395 51.6889 -5.05447e-05 52.0849 -5.05447e-05H57.0529C57.4129 -5.05447e-05 57.7369 0.14395 57.9529 0.359949C58.1689 0.575951 58.3129 0.899951 58.3129 1.25995V8.74795C58.9609 7.99195 59.8609 7.37995 61.0129 6.94795C62.1649 6.51595 63.3169 6.29995 64.5049 6.29995C66.3769 6.29995 67.7809 6.83995 68.7529 7.91995C69.6889 8.99995 70.1929 10.8 70.1929 13.356V23.94C70.1929 24.336 70.0489 24.66 69.8329 24.876C69.6169 25.092 69.2929 25.2 68.9329 25.2H63.9649C63.5689 25.2 63.2449 25.092 63.0289 24.876C62.8129 24.66 62.7049 24.336 62.7049 23.94V15.192C62.7049 13.392 61.9489 12.492 60.4729 12.492C59.8249 12.492 59.3209 12.708 58.9249 13.14C58.4929 13.572 58.3129 14.256 58.3129 15.192V23.94C58.3129 24.336 58.1689 24.66 57.9529 24.876C57.7369 25.092 57.4129 25.2 57.0529 25.2H52.0849C51.6889 25.2 51.3649 25.092 51.1489 24.876C50.9329 24.66 50.8249 24.336 50.8249 23.94ZM71.2853 16.02C71.2853 13.14 72.2213 10.8 74.1293 8.99995C76.0013 7.19995 78.4133 6.29995 81.3653 6.29995C84.2813 6.29995 86.6933 7.19995 88.6013 8.99995C90.4733 10.8 91.4453 13.14 91.4453 16.02C91.4453 18.9 90.4733 21.24 88.6013 23.04C86.6933 24.84 84.2813 25.74 81.3653 25.74C78.4133 25.74 75.9653 24.84 74.0933 23.04C72.2213 21.24 71.2853 18.9 71.2853 16.02ZM78.9893 16.02C78.9893 17.208 79.2053 18.144 79.6373 18.792C80.0693 19.476 80.6453 19.8 81.3653 19.8C82.0853 19.8 82.6613 19.476 83.0933 18.792C83.5253 18.144 83.7413 17.208 83.7413 16.02C83.7413 14.868 83.5253 13.932 83.0933 13.248C82.6613 12.6 82.0853 12.24 81.3653 12.24C80.6453 12.24 80.0693 12.6 79.6373 13.248C79.2053 13.932 78.9893 14.868 78.9893 16.02Z" fill="#4D4D4D"/>
</svg>
