<svg width="387" height="72" viewBox="0 0 387 72" fill="none" xmlns="http://www.w3.org/2000/svg">
<path d="M-0.000175238 61.536V10.848C-0.000175238 3.83995 3.64783 1.63195 9.21583 1.63195H46.1758C50.7838 1.63195 54.1438 2.97595 54.1438 7.96795C54.1438 12.9599 50.7838 14.304 46.1758 14.304H15.7438V29.28H42.4318C46.5598 29.28 49.8238 30.432 49.8238 35.328C49.8238 40.224 46.5598 41.376 42.4318 41.376H15.7438V58.08H46.9438C51.5518 58.08 54.9118 59.424 54.9118 64.416C54.9118 69.408 51.5518 70.752 46.9438 70.752H9.21583C3.64783 70.752 -0.000175238 68.544 -0.000175238 61.536ZM77.2386 54.528L68.0226 69.216C67.0626 70.656 65.1426 72 62.5506 72C59.1906 72 55.7346 69.312 55.7346 65.472C55.7346 64.224 56.4066 62.784 57.6546 60.96L68.4066 45.12L58.3266 29.952C57.5586 28.896 56.8866 27.648 56.8866 26.304C56.8866 23.328 59.2866 19.296 64.3746 19.296C66.5826 19.296 68.4066 20.16 70.0386 22.848L77.9106 35.808L85.4946 23.424C87.6066 19.872 89.7186 19.296 91.9266 19.296C95.1906 19.296 98.2626 22.1759 98.2626 25.344C98.2626 27.36 97.6866 28.8 96.8226 30.048L86.6466 45.12L97.4946 61.248C98.2626 62.304 98.8386 63.456 98.8386 65.472C98.8386 68.832 96.2466 72 91.7346 72C88.8546 72 87.1266 70.272 85.3026 67.392L77.2386 54.528ZM99.4573 46.656C99.4573 30.528 108.577 19.296 125.761 19.296C137.473 19.296 146.209 25.92 146.209 32.448C146.209 36.48 143.233 38.496 139.681 38.496C133.057 38.496 135.457 30.24 125.377 30.24C119.905 30.24 113.473 33.984 113.473 46.656C113.473 55.392 117.601 61.056 125.281 61.056C135.073 61.056 132.961 52.032 140.353 52.032C143.905 52.032 146.209 54.624 146.209 57.408C146.209 63.552 139.297 72 124.897 72C107.617 72 99.4573 61.344 99.4573 46.656ZM193.452 48.288H161.772C161.772 55.68 166.572 61.056 174.732 61.056C185.292 61.056 185.292 54.144 190.956 54.144C194.316 54.144 196.716 57.024 196.716 59.616C196.716 68.064 183.18 72 174.732 72C155.148 72 147.756 58.752 147.756 46.56C147.756 30.24 157.644 19.296 174.252 19.296C190.38 19.296 199.596 30.72 199.596 42.24C199.596 47.04 198.156 48.288 193.452 48.288ZM161.772 40.224H186.348C185.58 33.792 180.78 29.088 174.54 29.088C167.532 29.088 163.308 33.408 161.772 40.224ZM205.577 64.992V7.39195C205.577 2.78395 208.361 0.383949 212.585 0.383949C216.809 0.383949 219.593 2.78395 219.593 7.39195V64.992C219.593 69.6 216.809 72 212.585 72C208.361 72 205.577 69.6 205.577 64.992ZM225.48 34.944C225.48 23.52 236.808 19.296 246.504 19.296C257.16 19.296 267.912 23.52 267.912 29.952C267.912 33.216 265.704 36.096 262.056 36.096C256.584 36.096 256.392 29.6639 247.56 29.6639C242.664 29.6639 239.496 31.0079 239.496 33.984C239.496 37.248 242.664 38.016 246.984 38.976L252.84 40.32C260.808 42.144 270.312 45.504 270.312 55.296C270.312 66.72 259.272 72 248.712 72C236.04 72 225.48 66.336 225.48 59.424C225.48 56.352 227.208 53.568 231.144 53.568C237.192 53.568 237.768 62.208 248.136 62.208C253.128 62.208 256.296 60 256.296 57.12C256.296 53.568 253.224 52.992 248.232 51.744L239.976 49.728C231.816 47.712 225.48 44.352 225.48 34.944ZM276.178 64.992V26.304C276.178 22.5599 277.714 19.296 283.186 19.296C288.658 19.296 290.194 22.5599 290.194 26.304V64.992C290.194 68.736 288.658 72 283.186 72C277.714 72 276.178 68.736 276.178 64.992ZM275.89 7.29595C275.89 3.26395 279.154 -5.14984e-05 283.186 -5.14984e-05C287.218 -5.14984e-05 290.482 3.26395 290.482 7.29595C290.482 11.328 287.218 14.5919 283.186 14.5919C279.154 14.5919 275.89 11.328 275.89 7.29595ZM310.193 45.6C310.193 54.144 313.745 61.632 322.097 61.632C330.449 61.632 334.001 54.144 334.001 45.6C334.001 36.48 330.257 29.6639 322.097 29.6639C313.937 29.6639 310.193 36.48 310.193 45.6ZM296.177 45.6C296.177 30.816 305.201 19.296 322.097 19.296C338.993 19.296 348.017 30.816 348.017 45.6C348.017 59.616 341.201 72 322.097 72C302.993 72 296.177 59.616 296.177 45.6ZM353.998 64.992V25.824C353.998 21.6 356.782 19.296 360.334 19.296C363.886 19.296 366.67 21.6 366.67 25.824V31.2H366.862C368.494 25.344 371.662 19.296 378.478 19.296C382.894 19.296 386.158 22.1759 386.158 26.1119C386.158 31.296 382.702 33.12 379.246 33.12H376.75C371.086 33.12 368.014 37.056 368.014 48.672V64.992C368.014 68.736 366.478 72 361.006 72C355.534 72 353.998 68.736 353.998 64.992Z" fill="black"/>
</svg>
