<svg width="657" height="86" viewBox="0 0 657 86" fill="none" xmlns="http://www.w3.org/2000/svg">
<path d="M16.224 4.95911e-05L16.128 24.576C20.352 19.9681 25.248 17.6641 30.72 17.6641C37.056 17.6641 42.24 20.064 46.272 25.056C49.92 29.568 51.744 35.616 51.744 43.2C51.744 51.1681 49.728 57.6001 45.696 62.4001C41.664 67.2001 36.288 69.6961 29.664 69.7921C26.4 69.7921 23.712 69.2161 21.696 68.0641C19.68 66.9121 17.664 65.0881 15.552 62.4961V68.3521H2.36034e-05V4.95911e-05H16.224ZM25.536 30.144C22.56 30.144 20.16 31.2961 18.432 33.696C16.608 36 15.744 39.168 15.744 43.2C15.744 47.424 16.608 50.688 18.336 53.088C20.064 55.4881 22.56 56.7361 25.728 56.7361C28.704 56.7361 31.104 55.4881 32.832 53.088C34.56 50.5921 35.424 47.328 35.424 43.2C35.424 39.168 34.464 36 32.736 33.696C30.912 31.2961 28.512 30.144 25.536 30.144ZM75.5408 4.95911e-05V68.3521H59.2208V4.95911e-05H75.5408ZM109.227 17.376C116.907 17.376 123.051 19.8721 127.851 24.672C132.651 29.472 135.051 35.808 135.051 43.584C135.051 51.3601 132.651 57.696 127.851 62.5921C123.051 67.4881 116.715 69.9841 108.939 69.9841C101.163 69.9841 94.827 67.4881 90.027 62.6881C85.227 57.7921 82.827 51.456 82.827 43.6801C82.827 35.904 85.227 29.568 90.123 24.672C95.019 19.8721 101.355 17.376 109.227 17.376ZM108.747 29.568C105.675 29.568 103.371 30.72 101.643 33.216C99.915 35.7121 99.051 39.168 99.051 43.6801C99.051 48.2881 99.915 51.8401 101.643 54.336C103.371 56.8321 105.867 58.08 108.939 58.08C112.107 58.08 114.507 56.7361 116.235 54.2401C117.963 51.7441 118.731 48.192 118.731 43.584C118.731 39.0721 117.867 35.616 116.139 33.216C114.411 30.72 112.011 29.568 108.747 29.568ZM174.443 18.816H190.091V61.8241C190.091 70.2721 187.979 76.4161 183.851 80.2561C179.627 84.0961 173.387 85.9201 165.035 85.9201C150.251 85.9201 142.091 80.6401 140.747 69.9841H157.067C157.931 73.6321 160.619 75.4561 165.227 75.4561C168.875 75.4561 171.275 74.5921 172.523 72.6721C173.675 70.8481 174.347 68.0641 174.347 64.3201V58.8481C170.795 63.5521 165.995 65.8561 160.043 65.8561C153.515 65.8561 148.427 63.7441 144.683 59.4241C140.939 55.104 139.115 49.248 139.115 41.856C139.115 34.56 141.035 28.608 144.875 24.192C148.715 19.776 153.899 17.472 160.427 17.472C163.691 17.472 166.283 18.048 168.395 19.2C170.411 20.3521 172.427 22.368 174.443 25.056V18.816ZM164.747 29.76C161.675 29.76 159.371 30.912 157.643 33.024C155.915 35.136 155.051 38.112 155.051 41.76C155.051 45.6 155.915 48.672 157.643 50.88C159.371 53.088 161.771 54.1441 164.843 54.1441C167.915 54.1441 170.315 53.088 172.043 50.976C173.771 48.864 174.635 45.792 174.635 41.76C174.635 38.112 173.675 35.136 171.947 33.024C170.219 30.912 167.819 29.76 164.747 29.76ZM217.098 51.0721V68.3521H199.722V51.0721H217.098ZM243.249 4.95911e-05L243.153 24.576C247.377 19.9681 252.273 17.6641 257.745 17.6641C264.081 17.6641 269.265 20.064 273.297 25.056C276.945 29.568 278.769 35.616 278.769 43.2C278.769 51.1681 276.753 57.6001 272.721 62.4001C268.689 67.2001 263.313 69.6961 256.689 69.7921C253.425 69.7921 250.737 69.2161 248.721 68.0641C246.705 66.9121 244.689 65.0881 242.577 62.4961V68.3521H227.025V4.95911e-05H243.249ZM252.561 30.144C249.585 30.144 247.185 31.2961 245.457 33.696C243.633 36 242.769 39.168 242.769 43.2C242.769 47.424 243.633 50.688 245.361 53.088C247.089 55.4881 249.585 56.7361 252.753 56.7361C255.729 56.7361 258.129 55.4881 259.857 53.088C261.585 50.5921 262.449 47.328 262.449 43.2C262.449 39.168 261.489 36 259.761 33.696C257.937 31.2961 255.537 30.144 252.561 30.144ZM302.566 4.95911e-05V68.3521H286.246V4.95911e-05H302.566ZM336.252 17.376C343.932 17.376 350.076 19.8721 354.876 24.672C359.676 29.472 362.076 35.808 362.076 43.584C362.076 51.3601 359.676 57.696 354.876 62.5921C350.076 67.4881 343.74 69.9841 335.964 69.9841C328.188 69.9841 321.852 67.4881 317.052 62.6881C312.252 57.7921 309.852 51.456 309.852 43.6801C309.852 35.904 312.252 29.568 317.148 24.672C322.044 19.8721 328.38 17.376 336.252 17.376ZM335.772 29.568C332.7 29.568 330.396 30.72 328.668 33.216C326.94 35.7121 326.076 39.168 326.076 43.6801C326.076 48.2881 326.94 51.8401 328.668 54.336C330.396 56.8321 332.892 58.08 335.964 58.08C339.132 58.08 341.532 56.7361 343.26 54.2401C344.988 51.7441 345.756 48.192 345.756 43.584C345.756 39.0721 344.892 35.616 343.164 33.216C341.436 30.72 339.036 29.568 335.772 29.568ZM385.052 4.95911e-05V25.248C387.356 22.56 389.66 20.64 392.06 19.392C394.364 18.24 397.34 17.568 400.796 17.568C406.172 17.568 410.492 19.104 413.66 22.08C416.828 25.056 418.46 29.472 418.46 35.232V68.3521H402.236V39.168C402.236 33.6 399.548 30.816 394.364 30.816C388.124 30.816 385.052 34.752 385.052 42.6241V68.3521H369.02V4.95911e-05H385.052ZM451.568 17.376C459.248 17.376 465.392 19.8721 470.192 24.672C474.992 29.472 477.392 35.808 477.392 43.584C477.392 51.3601 474.992 57.696 470.192 62.5921C465.392 67.4881 459.056 69.9841 451.28 69.9841C443.504 69.9841 437.168 67.4881 432.368 62.6881C427.568 57.7921 425.168 51.456 425.168 43.6801C425.168 35.904 427.568 29.568 432.464 24.672C437.36 19.8721 443.696 17.376 451.568 17.376ZM451.088 29.568C448.016 29.568 445.712 30.72 443.984 33.216C442.256 35.7121 441.392 39.168 441.392 43.6801C441.392 48.2881 442.256 51.8401 443.984 54.336C445.712 56.8321 448.208 58.08 451.28 58.08C454.448 58.08 456.848 56.7361 458.576 54.2401C460.304 51.7441 461.072 48.192 461.072 43.584C461.072 39.0721 460.208 35.616 458.48 33.216C456.752 30.72 454.352 29.568 451.088 29.568ZM502.672 51.0721V68.3521H485.296V51.0721H502.672ZM523.927 42.336L508.087 18.816H526.135L533.143 30.528L540.151 18.816H557.431L541.879 42.048L559.543 68.3521H541.591L532.855 53.9521L524.407 68.3521H506.551L523.927 42.336ZM592.577 18.816H609.185L591.233 68.8321C589.121 74.5921 586.817 78.8161 584.129 81.4081C581.441 84.0961 577.313 85.3441 571.745 85.3441H561.089V72.1921C561.665 72.1921 562.625 72.2881 563.777 72.2881C564.929 72.2881 565.793 72.2881 566.369 72.2881C567.713 72.2881 568.769 72.1921 569.633 71.9041C570.497 71.6161 571.169 71.0401 571.649 70.2721C572.129 69.5041 572.513 68.8321 572.705 68.2561C572.897 67.6801 573.185 66.6241 573.569 65.0881L556.193 18.816H573.473L583.073 51.552L592.577 18.816ZM654.124 18.816V30.912L629.356 55.776H656.044V68.3521H608.524V55.872L633.1 31.2H610.54V18.816H654.124Z" fill="black"/>
</svg>
