<svg width="619" height="87" viewBox="0 0 619 87" fill="none" xmlns="http://www.w3.org/2000/svg">
<path d="M6.81594 67.2002H3.35994C2.30394 67.2002 1.43994 66.9122 0.863938 66.3362C0.287938 65.7602 -6.2108e-05 64.8962 -6.2108e-05 63.8402V3.36019C-6.2108e-05 2.40019 0.287938 1.53619 0.863938 0.96019C1.43994 0.384192 2.30394 0.000190735 3.35994 0.000190735H7.39194C8.35194 0.000190735 9.21594 0.384192 9.79194 0.96019C10.3679 1.53619 10.7519 2.40019 10.7519 3.36019V24.8642C14.7839 19.4882 20.2559 16.8002 27.3599 16.8002C33.9839 16.8002 39.5519 19.2962 44.1599 24.0962C48.7679 28.9922 51.0719 35.2322 51.0719 42.7202C51.0719 50.2082 48.7679 56.3522 44.1599 61.2482C39.5519 66.2402 33.9839 68.6402 27.3599 68.6402C20.0639 68.6402 14.3039 65.9522 10.1759 60.4802V63.8402C10.1759 64.8962 9.79194 65.7602 9.21594 66.3362C8.63994 66.9122 7.77594 67.2002 6.81594 67.2002ZM10.0799 42.7202C10.0799 47.7122 11.5199 51.8402 14.3999 55.1042C17.2799 58.3682 20.8319 59.9042 25.1519 59.9042C29.3759 59.9042 32.9279 58.3682 35.8079 55.1042C38.6879 51.8402 40.2239 47.7122 40.2239 42.7202C40.2239 37.7282 38.6879 33.6002 35.8079 30.3362C32.9279 27.1682 29.3759 25.5362 25.1519 25.5362C20.8319 25.5362 17.2799 27.1682 14.3999 30.4322C11.5199 33.6962 10.0799 37.7282 10.0799 42.7202ZM65.2844 67.2002H61.2524C60.1964 67.2002 59.3324 66.9122 58.7564 66.3362C58.1804 65.7602 57.8924 64.8962 57.8924 63.8402V3.36019C57.8924 2.40019 58.1804 1.53619 58.7564 0.96019C59.3324 0.384192 60.1964 0.000190735 61.2524 0.000190735H65.2844C66.2444 0.000190735 67.1084 0.384192 67.6844 0.96019C68.2604 1.53619 68.6444 2.40019 68.6444 3.36019V63.8402C68.6444 64.8962 68.2604 65.7602 67.6844 66.3362C67.1084 66.9122 66.2444 67.2002 65.2844 67.2002ZM75.5054 42.7202C75.5054 35.2322 77.9054 29.0882 82.8974 24.1922C87.7934 19.2962 93.9374 16.8002 101.425 16.8002C108.817 16.8002 114.961 19.2962 119.953 24.1922C124.849 29.0882 127.345 35.2322 127.345 42.7202C127.345 50.3042 124.849 56.5442 119.953 61.3442C114.961 66.2402 108.817 68.6402 101.425 68.6402C93.9374 68.6402 87.7934 66.2402 82.8974 61.3442C77.9054 56.4482 75.5054 50.2082 75.5054 42.7202ZM86.3534 42.7202C86.3534 47.9042 87.6974 52.0322 90.5774 55.2002C93.4574 58.3682 97.0094 59.9042 101.425 59.9042C105.745 59.9042 109.393 58.3682 112.273 55.2002C115.153 52.0322 116.593 47.9042 116.593 42.7202C116.593 37.6322 115.153 33.5042 112.273 30.3362C109.393 27.1682 105.841 25.5362 101.425 25.5362C97.0094 25.5362 93.4574 27.1682 90.5774 30.3362C87.6974 33.6002 86.3534 37.7282 86.3534 42.7202ZM171.075 64.9922V58.3682C167.235 63.5522 161.571 66.0482 154.083 66.0482C147.555 66.0482 142.083 63.7442 137.859 58.9442C133.635 54.2402 131.523 48.3842 131.523 41.4722C131.523 34.4642 133.635 28.6082 137.859 23.9042C142.083 19.2002 147.459 16.8002 154.179 16.8002C161.571 16.8002 167.331 19.4882 171.363 24.7682V21.5042C171.363 20.5442 171.651 19.7762 172.227 19.2002C172.803 18.6242 173.667 18.2402 174.627 18.2402H178.467C179.427 18.2402 180.291 18.6242 180.867 19.2002C181.443 19.7762 181.827 20.6402 181.827 21.6002V64.5122C181.827 71.3282 179.715 76.7042 175.587 80.6402C171.363 84.6722 165.411 86.5922 157.731 86.5922C152.163 86.5922 147.363 85.5362 143.427 83.4242C139.395 81.3122 136.611 78.0482 135.075 73.8242C134.883 73.4402 134.787 73.0562 134.787 72.5762C134.787 71.8082 135.075 71.2322 135.651 70.7522C136.227 70.2722 137.091 69.9842 138.051 69.9842H141.795C143.235 69.9842 144.387 70.8482 145.347 72.4802C147.267 76.3202 151.299 78.1442 157.635 78.1442C161.859 78.1442 165.123 77.0882 167.523 74.8802C169.827 72.7682 171.075 69.4082 171.075 64.9922ZM142.467 41.4722C142.467 46.0802 143.811 49.8242 146.595 52.8962C149.283 55.9682 152.835 57.4082 157.059 57.4082C161.283 57.4082 164.739 55.9682 167.619 52.8962C170.403 49.8242 171.843 46.0802 171.843 41.4722C171.843 36.8642 170.403 33.1202 167.619 30.0482C164.835 26.9762 161.283 25.4402 157.059 25.4402C152.739 25.4402 149.187 26.9762 146.499 30.0482C143.811 33.1202 142.467 36.9602 142.467 41.4722ZM199.513 67.2002H195.289C194.233 67.2002 193.369 66.9122 192.793 66.3362C192.217 65.7602 191.929 64.8962 191.929 63.8402V58.4642C191.929 57.5042 192.217 56.6402 192.793 56.0642C193.369 55.4882 194.233 55.1042 195.289 55.1042H199.513C200.473 55.1042 201.337 55.4882 201.913 56.0642C202.489 56.6402 202.873 57.5042 202.873 58.4642V63.8402C202.873 64.8962 202.489 65.7602 201.913 66.3362C201.337 66.9122 200.473 67.2002 199.513 67.2002ZM219.778 67.2002H216.322C215.266 67.2002 214.402 66.9122 213.826 66.3362C213.25 65.7602 212.962 64.8962 212.962 63.8402V3.36019C212.962 2.40019 213.25 1.53619 213.826 0.96019C214.402 0.384192 215.266 0.000190735 216.322 0.000190735H220.354C221.314 0.000190735 222.178 0.384192 222.754 0.96019C223.33 1.53619 223.714 2.40019 223.714 3.36019V24.8642C227.746 19.4882 233.218 16.8002 240.322 16.8002C246.946 16.8002 252.514 19.2962 257.122 24.0962C261.73 28.9922 264.034 35.2322 264.034 42.7202C264.034 50.2082 261.73 56.3522 257.122 61.2482C252.514 66.2402 246.946 68.6402 240.322 68.6402C233.026 68.6402 227.266 65.9522 223.138 60.4802V63.8402C223.138 64.8962 222.754 65.7602 222.178 66.3362C221.602 66.9122 220.738 67.2002 219.778 67.2002ZM223.042 42.7202C223.042 47.7122 224.482 51.8402 227.362 55.1042C230.242 58.3682 233.794 59.9042 238.114 59.9042C242.338 59.9042 245.89 58.3682 248.77 55.1042C251.65 51.8402 253.186 47.7122 253.186 42.7202C253.186 37.7282 251.65 33.6002 248.77 30.3362C245.89 27.1682 242.338 25.5362 238.114 25.5362C233.794 25.5362 230.242 27.1682 227.362 30.4322C224.482 33.6962 223.042 37.7282 223.042 42.7202ZM278.247 67.2002H274.215C273.159 67.2002 272.295 66.9122 271.719 66.3362C271.143 65.7602 270.855 64.8962 270.855 63.8402V3.36019C270.855 2.40019 271.143 1.53619 271.719 0.96019C272.295 0.384192 273.159 0.000190735 274.215 0.000190735H278.247C279.207 0.000190735 280.071 0.384192 280.647 0.96019C281.223 1.53619 281.607 2.40019 281.607 3.36019V63.8402C281.607 64.8962 281.223 65.7602 280.647 66.3362C280.071 66.9122 279.207 67.2002 278.247 67.2002ZM288.468 42.7202C288.468 35.2322 290.868 29.0882 295.86 24.1922C300.756 19.2962 306.9 16.8002 314.388 16.8002C321.78 16.8002 327.924 19.2962 332.916 24.1922C337.812 29.0882 340.308 35.2322 340.308 42.7202C340.308 50.3042 337.812 56.5442 332.916 61.3442C327.924 66.2402 321.78 68.6402 314.388 68.6402C306.9 68.6402 300.756 66.2402 295.86 61.3442C290.868 56.4482 288.468 50.2082 288.468 42.7202ZM299.316 42.7202C299.316 47.9042 300.66 52.0322 303.54 55.2002C306.42 58.3682 309.972 59.9042 314.388 59.9042C318.708 59.9042 322.356 58.3682 325.236 55.2002C328.116 52.0322 329.556 47.9042 329.556 42.7202C329.556 37.6322 328.116 33.5042 325.236 30.3362C322.356 27.1682 318.804 25.5362 314.388 25.5362C309.972 25.5362 306.42 27.1682 303.54 30.3362C300.66 33.6002 299.316 37.7282 299.316 42.7202ZM347.077 63.8402V3.36019C347.077 2.40019 347.365 1.53619 347.941 0.96019C348.517 0.384192 349.381 0.000190735 350.437 0.000190735H354.469C355.429 0.000190735 356.293 0.384192 356.869 0.96019C357.445 1.53619 357.829 2.40019 357.829 3.36019V24.3842C361.669 19.3922 367.237 16.8002 374.725 16.8002C386.053 16.8002 391.813 23.0402 391.813 35.5202V63.8402C391.813 64.8962 391.429 65.7602 390.853 66.3362C390.277 66.9122 389.413 67.2002 388.453 67.2002H384.421C383.365 67.2002 382.501 66.9122 381.925 66.3362C381.349 65.7602 381.061 64.8962 381.061 63.8402V37.3442C381.061 33.6962 380.101 30.9122 378.373 28.8002C376.549 26.7842 373.957 25.7282 370.693 25.7282C367.141 25.7282 364.069 27.0722 361.573 29.5682C359.077 32.0642 357.829 35.2322 357.829 39.0722V63.8402C357.829 64.8962 357.445 65.7602 356.869 66.3362C356.293 66.9122 355.429 67.2002 354.469 67.2002H350.437C349.381 67.2002 348.517 66.9122 347.941 66.3362C347.365 65.7602 347.077 64.8962 347.077 63.8402ZM398.628 42.7202C398.628 35.2322 401.028 29.0882 406.02 24.1922C410.916 19.2962 417.06 16.8002 424.548 16.8002C431.94 16.8002 438.084 19.2962 443.076 24.1922C447.972 29.0882 450.468 35.2322 450.468 42.7202C450.468 50.3042 447.972 56.5442 443.076 61.3442C438.084 66.2402 431.94 68.6402 424.548 68.6402C417.06 68.6402 410.916 66.2402 406.02 61.3442C401.028 56.4482 398.628 50.2082 398.628 42.7202ZM409.476 42.7202C409.476 47.9042 410.82 52.0322 413.7 55.2002C416.58 58.3682 420.132 59.9042 424.548 59.9042C428.868 59.9042 432.516 58.3682 435.396 55.2002C438.276 52.0322 439.716 47.9042 439.716 42.7202C439.716 37.6322 438.276 33.5042 435.396 30.3362C432.516 27.1682 428.964 25.5362 424.548 25.5362C420.132 25.5362 416.58 27.1682 413.7 30.3362C410.82 33.6002 409.476 37.7282 409.476 42.7202ZM465.493 67.2002H461.269C460.213 67.2002 459.349 66.9122 458.773 66.3362C458.197 65.7602 457.909 64.8962 457.909 63.8402V58.4642C457.909 57.5042 458.197 56.6402 458.773 56.0642C459.349 55.4882 460.213 55.1042 461.269 55.1042H465.493C466.453 55.1042 467.317 55.4882 467.893 56.0642C468.469 56.6402 468.853 57.5042 468.853 58.4642V63.8402C468.853 64.8962 468.469 65.7602 467.893 66.3362C467.317 66.9122 466.453 67.2002 465.493 67.2002ZM480.67 67.2002C478.078 67.2002 476.83 66.4322 476.83 64.8962C476.83 64.0322 477.214 63.0722 478.078 62.0162L492.958 41.8562L479.326 23.3282C478.462 22.3682 478.078 21.4082 478.078 20.5442C478.078 19.0082 479.326 18.2402 481.918 18.2402H486.526C487.678 18.2402 488.542 18.7202 489.214 19.6802L499.486 34.5602L509.566 19.6802C510.142 18.7202 511.102 18.2402 512.35 18.2402H516.958C519.454 18.2402 520.702 19.0082 520.702 20.5442C520.702 21.3122 520.222 22.1762 519.454 23.3282L505.726 41.8562L521.086 62.1122C521.854 63.2642 522.334 64.2242 522.334 64.9922C522.334 66.5282 521.086 67.2002 518.59 67.2002H513.886C512.734 67.2002 511.774 66.7202 511.198 65.7602L499.486 48.9602L488.062 65.7602C487.39 66.7202 486.43 67.2002 485.278 67.2002H480.67ZM526.066 22.8482C525.778 22.2722 525.682 21.6962 525.682 21.0242C525.682 19.2002 526.834 18.2402 529.138 18.2402H533.65C535.186 18.2402 536.242 19.0082 536.818 20.5442L549.298 56.4482H549.682L561.778 20.5442C562.354 19.0082 563.41 18.2402 564.946 18.2402H569.458C571.762 18.2402 572.914 19.2002 572.914 21.0242C572.914 21.4082 572.722 21.9842 572.53 22.8482L555.058 67.3922C553.522 71.3282 552.274 74.3042 551.314 76.2242C550.354 78.1442 549.106 80.0642 547.666 81.9842C546.226 83.9042 544.594 85.2482 542.866 85.9202C541.138 86.5922 538.93 86.8802 536.434 86.8802H535.378C530.482 86.8802 528.082 85.7282 528.082 83.3282V80.7362C528.082 79.0082 528.85 78.1442 530.578 78.1442C531.058 78.1442 531.73 78.2402 532.69 78.3362C533.554 78.4322 534.13 78.4322 534.418 78.4322C538.45 78.4322 541.522 74.6882 543.538 67.1042L526.066 22.8482ZM576.013 58.9442L602.893 26.4962H580.429C579.373 26.4962 578.509 26.2082 577.933 25.6322C577.357 25.0562 577.069 24.1922 577.069 23.1362V21.6002C577.069 20.6402 577.357 19.7762 577.933 19.2002C578.509 18.6242 579.373 18.2402 580.429 18.2402H613.165C614.125 18.2402 614.989 18.6242 615.565 19.2002C616.141 19.7762 616.525 20.6402 616.525 21.6002V24.2882C616.525 25.1522 616.237 25.9202 615.757 26.4962L588.781 58.9442H614.701C615.661 58.9442 616.525 59.3282 617.101 59.9042C617.677 60.4802 618.061 61.3442 618.061 62.3042V63.8402C618.061 64.8962 617.677 65.7602 617.101 66.3362C616.525 66.9122 615.661 67.2002 614.701 67.2002H578.605C577.549 67.2002 576.685 66.9122 576.109 66.3362C575.533 65.7602 575.245 64.8962 575.245 63.8402V61.1522C575.245 60.3842 575.437 59.6162 576.013 58.9442Z" fill="white"/>
</svg>
